HIERARCHY
ROOT Hips
{
	OFFSET 0.000000 0.000000 0.000000
	CHANNELS 6 Xposition Yposition Zposition Xrotation Yrotation Zrotation
	JOINT LeftUpLeg_virtual
	{
		OFFSET 0.000000 0.000000 0.000000
		CHANNELS 3 Xrotation Yrotation Zrotation
		JOINT LeftUpLeg
		{
			OFFSET 13.026900 -6.336304 -1.092800
			CHANNELS 3 Xrotation Yrotation Zrotation
			JOINT LeftLeg
			{
				OFFSET 0.524474 -46.096886 9.782700
				CHANNELS 3 Xrotation Yrotation Zrotation
				JOINT LeftFoot
				{
					OFFSET -0.524474 -53.427422 -12.948200
					CHANNELS 3 Xrotation Yrotation Zrotation
					JOINT LeftToeBase
					{
						OFFSET 0.192200 -14.009700 16.364100
						CHANNELS 3 Xrotation Yrotation Zrotation
						JOINT LeftToe_End
						{
							OFFSET -1.784700 -0.561700 9.474800
							CHANNELS 3 Xrotation Yrotation Zrotation
							End Site
							{
								OFFSET 0 0 0
							}
						}
					}
				}
			}
		}
	}
	JOINT RightUpLeg_virtual
	{
		OFFSET 0.000000 0.000000 0.000000
		CHANNELS 3 Xrotation Yrotation Zrotation
		JOINT RightUpLeg
		{
			OFFSET -12.883000 -6.336304 -1.092800
			CHANNELS 3 Xrotation Yrotation Zrotation
			JOINT RightLeg
			{
				OFFSET -0.524587 -46.096825 9.782800
				CHANNELS 3 Xrotation Yrotation Zrotation
				JOINT RightFoot
				{
					OFFSET 0.524587 -53.427383 -12.948300
					CHANNELS 3 Xrotation Yrotation Zrotation
					JOINT RightToeBase
					{
						OFFSET -0.192200 -14.009700 16.364100
						CHANNELS 3 Xrotation Yrotation Zrotation
						JOINT RightToe_End
						{
							OFFSET 1.784700 -0.561700 9.474800
							CHANNELS 3 Xrotation Yrotation Zrotation
							End Site
							{
								OFFSET 0 0 0
							}
						}
					}
				}
			}
		}
	}
	JOINT Spine_virtual
	{
		OFFSET 0.000000 0.000000 0.000000
		CHANNELS 3 Xrotation Yrotation Zrotation
		JOINT Spine
		{
			OFFSET 0.072000 7.257294 -0.789700
			CHANNELS 3 Xrotation Yrotation Zrotation
			JOINT Spine1
			{
				OFFSET 0.000000 12.508769 -0.658067
				CHANNELS 3 Xrotation Yrotation Zrotation
				JOINT Spine1_split
				{
					OFFSET 0.000000 12.508769 -0.658067
					CHANNELS 3 Xrotation Yrotation Zrotation
					JOINT Spine2
					{
						OFFSET 0.000000 12.508769 -0.658067
						CHANNELS 3 Xrotation Yrotation Zrotation
						JOINT Neck_virtual
						{
							OFFSET 0.000000 0.000000 0.000000
							CHANNELS 3 Xrotation Yrotation Zrotation
							JOINT Neck
							{
								OFFSET 0.000000 14.033295 7.520400
								CHANNELS 3 Xrotation Yrotation Zrotation
								JOINT Head
								{
									OFFSET 0.000000 8.198502 5.703100
									CHANNELS 3 Xrotation Yrotation Zrotation
									JOINT HeadTop_End
									{
										OFFSET 0.000000 17.760803 13.332701
										CHANNELS 3 Xrotation Yrotation Zrotation
										End Site
										{
											OFFSET 0 0 0
										}
									}
								}
							}
						}
						JOINT LeftShoulder_virtual
						{
							OFFSET 0.000000 0.000000 0.000000
							CHANNELS 3 Xrotation Yrotation Zrotation
							JOINT LeftShoulder
							{
								OFFSET 6.292450 5.785301 -0.669000
								CHANNELS 3 Xrotation Yrotation Zrotation
								JOINT LeftShoulder_split
								{
									OFFSET 6.292450 5.785301 -0.669000
									CHANNELS 3 Xrotation Yrotation Zrotation
									JOINT LeftArm
									{
										OFFSET 13.907140 -6.093903 1.965100
										CHANNELS 3 Xrotation Yrotation Zrotation
										JOINT LeftForeArm
										{
											OFFSET 34.140198 0.000000 0.000000
											CHANNELS 3 Xrotation Yrotation Zrotation
											JOINT LeftHand
											{
												OFFSET 40.960209 0.000000 0.000000
												CHANNELS 3 Xrotation Yrotation Zrotation
												End Site
												{
													OFFSET 0 0 0
												}
											}
										}
									}
								}
							}
						}
						JOINT RightShoulder_virtual
						{
							OFFSET 0.000000 0.000000 0.000000
							CHANNELS 3 Xrotation Yrotation Zrotation
							JOINT RightShoulder
							{
								OFFSET -6.292450 5.785301 -0.669000
								CHANNELS 3 Xrotation Yrotation Zrotation
								JOINT RightShoulder_split
								{
									OFFSET -6.292450 5.785301 -0.669000
									CHANNELS 3 Xrotation Yrotation Zrotation
									JOINT RightArm
									{
										OFFSET -13.907140 -6.093903 1.965100
										CHANNELS 3 Xrotation Yrotation Zrotation
										JOINT RightForeArm
										{
											OFFSET -34.140198 0.000000 0.000000
											CHANNELS 3 Xrotation Yrotation Zrotation
											JOINT RightHand
											{
												OFFSET -40.960209 0.000000 0.000000
												CHANNELS 3 Xrotation Yrotation Zrotation
												End Site
												{
													OFFSET 0 0 0
												}
											}
										}
									}
								}
							}
						}
					}
				}
			}
		}
	}
}
MOTION
Frames: 6
Frame Time: 0.03333333
234.489410 39.030197 -40.970112 0.000000 0.000000 0.000000 -126.971851 -21.735392 59.096675 -83.066343 9.391203 6.320093 103.382686 -12.861092 0.790256 15.378801 2.595031 6.652459 12.001084 -1.598996 1.820937 0.000000 0.000000 0.000000 -127.850896 -24.843737 57.032312 -81.800545 -0.293356 6.044707 58.697867 1.418743 2.564916 -0.136129 0.752444 10.049121 -16.305869 -0.439584 0.442600 0.000000 0.000000 0.000000 -134.764086 -23.608322 68.931027 13.167419 8.069039 5.789428 23.207212 5.365181 1.725684 -1.248010 1.973532 1.714195 0.000000 0.000000 0.000000 20.326653 5.309462 1.096471 53.547884 -4.544433 -8.424804 -24.246436 -17.231765 13.207802 0.000000 0.000000 0.000000 21.981466 6.452183 1.757349 2.545741 1.513024 4.553842 5.950228 -7.892347 1.228911 -34.890761 -16.901822 -5.093076 175.388084 -43.929861 177.569141 0.000000 0.000000 0.000000 17.980719 5.172323 2.897651 -1.955091 -4.507971 -3.104304 10.299614 -6.478230 6.331766 -76.022621 3.293276 46.935492 -164.454904 61.820855 159.273946 0.000000 0.000000 0.000000 
240.218719 33.552250 -42.961231 0.000000 0.000000 0.000000 -128.725256 -9.294795 69.066231 -79.533667 18.230666 12.905192 101.628714 -10.541921 -0.820853 11.251005 6.702571 7.102902 12.098213 -1.823935 1.831352 0.000000 0.000000 0.000000 -128.081292 -12.861908 64.532802 -81.378787 -0.341698 3.838989 62.127742 1.159535 3.612390 -4.814626 2.012894 13.018316 -13.956875 0.127103 -0.404296 0.000000 0.000000 0.000000 -135.877939 -12.626488 79.079479 13.796250 6.109722 4.706867 22.707526 5.697965 2.467123 -0.443703 0.961498 1.962723 0.000000 0.000000 0.000000 19.447323 5.753179 1.766466 51.785251 -4.309150 -10.161543 -21.205115 -14.302702 14.073356 0.000000 0.000000 0.000000 22.010160 6.372701 2.364731 1.850708 3.113711 2.666168 5.714170 -7.690627 0.166197 -22.642412 -20.545989 -10.106289 173.270274 -48.167966 176.064368 0.000000 0.000000 0.000000 17.683636 5.490691 3.943715 -2.694394 -5.103353 -4.755362 9.356983 -2.960725 4.689327 -61.026142 -3.320148 45.746493 -155.343746 73.433618 151.007546 0.000000 0.000000 0.000000 
246.518433 28.773773 -45.083073 0.000000 0.000000 0.000000 -132.504058 1.634428 80.577784 -79.902367 29.735918 20.731671 100.530460 -6.879957 -2.466366 6.876129 10.468192 7.758126 10.631315 -1.939673 1.678976 0.000000 0.000000 0.000000 -130.208746 -1.509223 73.234770 -80.070840 -0.721914 1.992776 62.830671 0.108975 4.810453 -8.755058 2.426171 15.093980 -11.237097 0.519742 -1.239392 0.000000 0.000000 0.000000 -139.292952 -2.714889 89.974280 14.103376 4.277447 3.182812 21.914416 5.988490 2.897565 0.075411 -0.070997 1.993167 0.000000 0.000000 0.000000 19.270119 6.154840 2.216569 49.181238 -3.645442 -10.710458 -20.079834 -12.682152 14.799463 0.000000 0.000000 0.000000 22.286480 6.370438 2.786535 1.276702 3.310021 -0.481981 5.671518 -6.217076 0.976754 -13.811302 -22.165340 -13.435339 171.236066 -55.035520 173.718376 0.000000 0.000000 0.000000 17.633385 5.810289 4.784352 -3.144980 -3.636835 -5.230853 8.460624 1.280203 3.435439 -47.753609 -4.355303 45.053891 -59.006202 83.270661 55.812717 0.000000 0.000000 0.000000 
253.616882 25.448547 -46.136189 0.000000 0.000000 0.000000 -138.017141 11.355502 93.577198 -85.438495 39.494336 28.467930 100.875583 -3.131029 -3.701182 3.983390 12.973272 7.793836 8.151774 -1.950472 1.292774 0.000000 0.000000 0.000000 -134.335614 8.365578 82.953037 -77.277102 -0.319039 1.170718 60.831099 -1.907753 6.119978 -11.473217 2.008105 15.608937 -9.146522 0.650841 -1.824180 0.000000 0.000000 0.000000 -144.813971 5.854626 102.123199 13.914652 3.094455 1.540169 20.908146 6.327072 2.939602 -0.044041 -0.418544 1.623481 0.000000 0.000000 0.000000 19.737208 6.610328 2.330766 45.627101 -2.278173 -9.590937 -21.464599 -12.374578 15.592460 0.000000 0.000000 0.000000 22.623297 6.608066 2.885192 0.789408 2.299957 -4.086354 5.100116 -4.885590 2.843250 -7.054305 -21.635080 -15.306003 168.745533 -63.584540 170.121024 0.000000 0.000000 0.000000 17.646765 6.131350 5.220752 -3.395329 -1.146739 -4.747545 8.393508 5.363915 2.045004 -38.061072 -2.146155 43.195896 -9.199051 65.449400 7.333303 0.000000 0.000000 0.000000 
261.304108 24.062927 -46.865032 0.000000 0.000000 0.000000 -145.611970 18.883398 107.657947 -93.537890 45.040709 33.988193 103.127093 0.282232 -4.852549 1.820158 13.929190 8.754515 5.144890 -1.818379 0.673943 0.000000 0.000000 0.000000 -140.474014 16.158850 93.714546 -73.812017 1.315258 1.409017 58.078055 -3.841093 6.951437 -12.503461 1.551128 15.213779 -8.214136 0.679141 -2.130319 0.000000 0.000000 0.000000 -151.937176 12.044826 114.279604 13.395361 2.815195 0.204554 19.821720 6.781622 2.709243 -0.608251 -0.588487 1.847919 0.000000 0.000000 0.000000 20.697217 7.060691 2.091265 40.717865 -0.210331 -7.278571 -25.131947 -12.607030 16.367141 0.000000 0.000000 0.000000 22.796709 7.083364 2.673230 0.276101 0.260135 -7.350834 3.140033 -3.492524 3.511071 -1.590785 -20.334209 -16.071403 163.983034 -72.315154 163.763184 0.000000 0.000000 0.000000 17.651605 6.481146 5.241232 -3.425388 1.516721 -3.526317 8.586433 7.757623 0.190237 -32.682626 0.409994 40.320249 -2.419165 47.854177 1.803259 0.000000 0.000000 0.000000 
269.762390 24.581337 -46.639088 0.000000 0.000000 0.000000 -154.792782 23.590230 121.596068 -99.153979 47.330335 34.193676 106.952307 3.038636 -6.167470 -1.009919 13.794516 11.320419 3.164511 -1.589421 -0.229537 0.000000 0.000000 0.000000 -148.750373 21.947891 106.193869 -71.325623 4.543696 1.826558 56.697793 -4.721751 7.373044 -11.025464 1.491133 15.257290 -9.110680 0.667021 -2.192437 0.000000 0.000000 0.000000 -159.818545 15.974699 126.272508 12.878413 3.416520 -0.653015 18.956618 7.246407 2.397247 -1.317248 -0.991211 2.173210 0.000000 0.000000 0.000000 22.072820 7.480234 1.676975 34.385935 2.437457 -5.160492 -30.488370 -12.257573 16.988047 0.000000 0.000000 0.000000 22.816194 7.621725 2.352136 -0.274641 -2.055194 -9.698226 1.171649 -1.406459 2.111792 3.495506 -19.534011 -15.278964 151.652712 -80.081072 149.589476 0.000000 0.000000 0.000000 17.637480 6.760893 5.053514 -3.318759 3.647633 -2.108976 9.039322 8.851045 -2.177688 -32.644541 0.954731 37.705749 -0.017318 35.829315 0.371541 0.000000 0.000000 0.000000 
